# xmcd
#
# Track frame offsets:
#	150
#	21949
#	38737
#	54716
#	72569
#	86525
#	102099
#	121787
#	139761
#	159137
#	170470
#	183738
#	202020
#	219934
#	233102
#	245590
#	270968
#	298162
#
# Disc length: 4299 seconds
#
# Revision: 0
# Processed by: cddbd v1.5.2PL0 Copyright (c) Steve Scherf et al.
# Submitted via: EasyCDDAExtractor 16.0.6.1
#
DISCID=0110c912
DTITLE=Συλλογικός δίσκος - Στου τραγουδιού την όχθη 1-4
DYEAR=2011
DGENRE=Έντεχνη λαϊκή
TTITLE0=Μητσιάς Μανώλης - Ερωτικό [Ε. Θαλασσινός-Ά. Αλκαίος]
TTITLE1=Φριντζήλα Μάρθα - Το κομμωτριάκι [Θανάσης Παπακωνσταντίνου]
TTITLE2=Θηβαίος Χρήστος - Σ' ακολουθώ [Μάνος Λοΐζος]
TTITLE3=Μουτσάτσου Αναστασία-Σκιαδαρέση Μαρίνα - Πόσο σε θέλω [Τερμίτες-Γ. Σπυ
TTITLE3=ρόπουλος]
TTITLE4=Παπάζογλου Νίκος - Δεν είμαι ποιητής [Ν. Παπάζογλου-Λάζ. Ανδρέου]
TTITLE5=Μακεδόνας Κώστας - Μαργαριτάρια [Γιώργος Ζήκας]
TTITLE6=Αρλέτα - Η σερενάτα [Λ. Παπαδόπουλος-Μ. Κριεζή]
TTITLE7=Λιδάκης Μανώλης - Αν θες να δεις τα θαύματα [Π. Θαλασσινός-Κ. Φασουλάς
TTITLE7=]
TTITLE8=Λιδάκης Μανώλης-Χαΐνηδες - Είχα μιά αγάπη μιά φορά [Δημήτρης Αποστολάκ
TTITLE8=ης]
TTITLE9=Ανδρεάτος Γεράσιμος-Θαλασσινός Παντελής - Καράβια στη στεριά [Μ. Μάτσα
TTITLE9=ς-Μ. Γκανάς]
TTITLE10=Αρβανιτάκη Ελευθερία - Στα ρόδα της αυλής σου [Π. Ταμπούρης-Θ. Γκόνης
TTITLE10=]
TTITLE11=Ζιώγαλας Νίκος - Βέροια, Θεσσαλονίκη, Αθήνα [Νίκος Ζιώγαλας]
TTITLE12=Κανά Μελίνα - Γέλα, ψυχή μου [Κώστας Παρίσης]
TTITLE13=Λουδοβίκος των Ανωγείων-Τζανουδάκη Μαρία-Στέλλα - Το όχι αποκοιμήθηκε
TTITLE13=στην αγκαλιά του ναί[Λουδοβίκος Ανωγείων]
TTITLE14=Δεληβοριάς Φοίβος - Ερωτικό για δύο αγγέλους [Φοίβος Δεληβοριάς]
TTITLE15=Γιαννάτου Σαβίνα - Ah mon dieu [Lola Martin]
TTITLE16=Ντάλη Καίτη - Το δίχτυ [Σ. Ξαρχάκος-Ν. Γκάτσος]
TTITLE17=Ξυδάκης Νίκος - Ο φιλομαθής πτωχός [Ν. Ξυδάκης-Γ. Βιζυηνός]
EXTD=
EXTT0=
EXTT1=
EXTT2=
EXTT3=
EXTT4=
EXTT5=
EXTT6=
EXTT7=
EXTT8=
EXTT9=
EXTT10=
EXTT11=
EXTT12=
EXTT13=
EXTT14=
EXTT15=
EXTT16=
EXTT17=
PLAYORDER=
